<svg width="24" height="24" viewBox="0 0 24 24" fill="none" xmlns="http://www.w3.org/2000/svg">
<path d="M21.5544 11.1254C21.5309 10.7136 21.4589 10.3032 21.3682 9.90049C21.1301 8.81185 20.6919 7.77025 20.0919 6.83233C18.7407 4.70689 16.5221 3.14545 14.0544 2.62705C13.693 2.54113 13.3229 2.48593 12.9538 2.45185C12.4671 2.40049 11.9751 2.38801 11.4864 2.41921C11.089 2.43313 10.6896 2.48209 10.2994 2.55841C9.94084 2.60833 9.5914 2.70721 9.24388 2.80273C8.91796 2.90449 8.59588 3.01873 8.281 3.15025C7.98196 3.27697 7.68772 3.41665 7.4026 3.57457C7.12084 3.72673 6.84676 3.89569 6.58372 4.08049C6.51796 4.12897 6.44884 4.17313 6.37828 4.21057C5.72212 3.71233 5.05828 3.22369 4.36804 2.77441C4.17844 2.65729 3.99364 2.52529 3.781 2.45329C3.43012 2.33089 3.02308 2.42497 2.74756 2.67409C2.48596 2.90737 2.37316 3.26785 2.40436 3.61249C2.4058 4.06993 2.40148 4.52737 2.40772 4.98433C2.40148 5.44657 2.40628 5.90977 2.40436 6.37201C2.40436 6.83281 2.40292 7.29313 2.4058 7.75345C2.40244 8.29057 2.40244 8.82769 2.4058 9.36337C2.40244 9.88657 2.40244 10.4098 2.40724 10.931C2.4106 11.5838 2.37604 12.2405 2.44948 12.8904C2.50132 13.5605 2.64052 14.2248 2.83924 14.8656C3.74884 17.8397 6.20404 20.3006 9.19156 21.1714L9.193 21.1824C9.8146 21.3658 10.4535 21.5035 11.0986 21.5534C11.8143 21.6221 12.5405 21.6206 13.2514 21.5112C13.6335 21.4814 14.0079 21.3874 14.3818 21.3048C14.8124 21.1906 15.2352 21.0528 15.6471 20.8853C16.034 20.7192 16.416 20.5426 16.7775 20.3261C17.1015 20.1461 17.4101 19.9392 17.7077 19.7198C18.0538 19.463 18.384 19.1842 18.6927 18.8837C18.9322 18.6566 19.153 18.4075 19.3676 18.1555C19.574 17.9064 19.7698 17.6482 19.9532 17.3789C20.1192 17.1331 20.2728 16.8792 20.4197 16.621C20.5714 16.3296 20.7173 16.0368 20.8474 15.7363C20.99 15.3744 21.1306 15.013 21.2295 14.6386C21.314 14.3314 21.4061 14.0232 21.4359 13.7064C21.517 13.3728 21.553 13.0219 21.5674 12.6806C21.6125 12.1651 21.6096 11.6424 21.5535 11.1269L21.5544 11.1254ZM18.0375 9.86497C17.9213 10.176 17.7159 10.4429 17.473 10.6666C17.2594 10.8778 17.0472 11.0899 16.8351 11.303C16.609 11.5291 16.3815 11.7542 16.1568 11.9818C15.9399 12.1982 15.7224 12.4138 15.5069 12.6312C15.2703 12.8683 15.0332 13.104 14.7975 13.3411C14.5287 13.6104 14.2589 13.8778 13.9906 14.148C13.7362 14.4034 13.4808 14.6568 13.2264 14.9117C12.9701 15.169 12.7124 15.4248 12.4565 15.6821C12.2208 15.9096 12.0053 16.1611 11.7394 16.3555C11.4072 16.5638 11.018 16.667 10.6268 16.6627C10.1746 16.6339 9.72964 16.4549 9.40516 16.1352C8.40004 15.131 7.39588 14.1254 6.39076 13.1213C6.14452 12.8779 5.98036 12.563 5.89156 12.2304C5.80036 11.7725 5.85412 11.2795 6.08932 10.8715C6.26932 10.5538 6.54628 10.3022 6.86116 10.1227C7.20724 9.96097 7.59172 9.89185 7.97236 9.93601C8.38276 9.99745 8.77828 10.1851 9.06532 10.4885C9.60964 11.0347 10.154 11.5814 10.7016 12.1248C10.8672 11.9678 11.0261 11.8032 11.185 11.6395C11.4149 11.4178 11.641 11.1917 11.8618 10.9608C12.0802 10.7558 12.2904 10.5418 12.4968 10.3248C12.6452 10.1928 12.78 10.0464 12.9207 9.90625C13.1511 9.68209 13.3767 9.45313 13.6023 9.22417C13.8173 9.01633 14.0266 8.80225 14.2373 8.59009C14.4634 8.36929 14.6842 8.14273 14.9088 7.92049C15.1349 7.69153 15.4128 7.51393 15.7191 7.41361C16.1098 7.30225 16.5303 7.31329 16.9167 7.43857C17.4087 7.62721 17.8056 8.01361 18.0207 8.49313C18.181 8.93233 18.1992 9.42289 18.038 9.86497H18.0375Z" fill="#6750A4"/>
</svg>
