<?xml version="1.0" encoding="UTF-8" standalone="no"?>
<svg width="250.472mm" height="217.664mm"
 viewBox="0 0 710 617"
 xmlns="http://www.w3.org/2000/svg" xmlns:xlink="http://www.w3.org/1999/xlink"  version="1.2" baseProfile="tiny">
<title>Ardabil</title>
<desc>Generated with Qt</desc>
<defs>
</defs>
<g fill="none" stroke="black" stroke-width="1" fill-rule="evenodd" stroke-linecap="square" stroke-linejoin="bevel" >

<g fill="none" stroke="#000000" stroke-opacity="1" stroke-width="1" stroke-linecap="square" stroke-linejoin="bevel" transform="matrix(1,0,0,1,0,0)"
font-family="MS Shell Dlg 2" font-size="8.25" font-weight="400" font-style="normal" 
>
</g>

<g fill="#000000" fill-opacity="1" stroke="none" transform="matrix(1,0,0,1,0,0)"
font-family="MS Shell Dlg 2" font-size="8.25" font-weight="400" font-style="normal" 
>
<path vector-effect="none" fill-rule="nonzero" d="M413,531 C415,531 417,531 418,531 C420,531 423,531 424,529 C426,528 427,527 428,526 C431,523 434,520 438,518 C439,518 441,518 442,518 C448,518 454,522 459,527 C463,530 466,533 469,533 C470,533 471,533 471,533 C473,532 474,530 475,529 C477,527 479,524 483,523 C485,522 487,522 489,522 C490,522 490,522 491,521 C493,521 495,520 496,519 C497,518 497,517 498,517 C498,516 498,516 498,516 C498,516 499,515 499,514 C500,513 500,513 500,512 C500,512 500,512 500,511 C500,511 500,510 500,509 C500,508 500,506 500,505 C500,505 500,504 500,504 C499,499 497,495 495,490 C490,479 484,469 478,459 C472,448 465,437 460,425 C458,421 456,418 455,414 C452,406 450,399 449,392 C444,367 447,344 459,327 L461,325 C463,323 464,321 465,319 C466,318 467,316 467,314 C467,314 467,313 467,313 C466,312 466,311 466,311 C466,310 465,309 465,309 C465,308 465,308 464,308 C463,306 461,304 459,302 C456,299 454,297 452,294 C447,287 446,279 446,270 C446,267 446,264 446,262 C446,260 446,258 446,257 C446,257 446,256 446,256 C446,255 446,253 446,252 C446,250 446,249 446,248 C446,248 446,248 445,247 C445,246 445,245 445,244 C444,240 443,237 441,234 C439,234 438,234 436,234 C434,234 433,234 431,234 C408,232 392,212 378,194 C365,176 363,161 371,151 C377,144 385,142 394,140 C401,139 408,138 412,132 C415,127 413,118 408,113 C405,108 400,105 395,101 C392,100 390,98 388,96 C385,94 381,90 381,86 C380,77 388,72 397,71 C398,71 399,71 400,71 C404,70 409,70 411,67 C415,63 411,55 408,49 C400,35 390,19 377,9 C369,4 360,1 351,1 C343,1 335,3 329,7 L212,93 C206,97 202,104 202,108 C202,108 202,108 202,109 C202,109 202,109 203,110 C204,110 204,111 205,111 C206,112 208,113 209,114 C209,114 209,115 210,115 C221,125 228,139 230,154 C230,157 230,160 230,162 C229,164 229,166 229,167 C229,171 228,175 228,178 C228,178 229,178 229,178 C229,180 229,181 229,182 C229,183 229,184 230,185 L259,140 C263,134 268,130 272,130 C273,130 274,130 275,131 C276,131 276,131 276,131 C277,131 277,131 278,132 C278,132 279,132 279,133 C279,133 280,133 280,133 C281,134 282,136 283,137 C284,138 285,140 286,142 C300,166 295,200 275,219 C276,219 277,219 278,219 C278,219 278,219 279,219 C280,219 282,218 284,218 C286,218 287,219 289,219 C292,220 294,222 296,225 C299,231 299,239 297,244 C295,250 293,256 290,262 C289,262 289,263 289,264 C288,264 288,265 287,266 C284,271 281,276 277,280 C276,281 276,281 276,281 C275,282 274,284 273,285 C272,285 272,286 272,286 C272,286 271,287 271,287 C271,287 271,288 270,288 C270,288 270,289 270,289 C270,289 269,290 269,291 C269,291 268,292 268,292 C268,293 268,293 268,293 C268,293 268,294 268,294 C268,294 268,294 268,295 C268,296 268,296 268,296 C268,297 269,298 269,299 C270,299 270,300 271,301 C271,301 271,301 272,301 C273,302 274,303 275,304 C276,305 277,306 278,306 C278,307 279,307 279,307 C279,307 279,307 280,308 C284,311 288,313 292,316 C293,316 294,317 296,318 C296,318 297,318 297,318 C298,319 299,319 300,319 C301,320 302,320 303,320 C303,320 304,320 304,320 C306,321 307,321 309,321 C309,321 310,321 310,321 C313,321 315,321 317,321 C320,320 322,320 325,320 C325,320 326,320 326,320 C328,320 329,320 330,321 C332,321 334,321 336,322 C337,322 337,323 338,323 C339,324 339,324 340,324 C340,325 340,325 341,325 C342,326 343,326 343,327 C343,327 344,327 344,327 C348,331 350,337 352,341 C352,342 352,342 352,343 C352,343 353,344 353,344 C353,345 353,346 353,347 C354,351 355,354 355,358 C356,363 356,369 358,374 C361,382 367,389 375,394 C376,394 377,395 377,395 C380,396 384,398 386,401 C395,410 391,422 388,433 L387,436 C386,438 385,441 385,443 C384,452 385,460 388,467 C388,469 390,471 391,473 C393,477 396,480 400,483 C406,489 413,495 414,505 C415,513 412,520 407,526 C409,528 411,529 414,531 L413,531"/>
</g>

<g fill="none" stroke="#000000" stroke-opacity="1" stroke-width="1" stroke-linecap="square" stroke-linejoin="bevel" transform="matrix(1,0,0,1,0,0)"
font-family="MS Shell Dlg 2" font-size="8.25" font-weight="400" font-style="normal" 
>
</g>
</g>
</svg>
