<?xml version="1.0" encoding="UTF-8" standalone="no"?>
<svg width="246.944mm" height="175.683mm"
 viewBox="0 0 700 498"
 xmlns="http://www.w3.org/2000/svg" xmlns:xlink="http://www.w3.org/1999/xlink"  version="1.2" baseProfile="tiny">
<title>Esfahan</title>
<desc>Generated with Qt</desc>
<defs>
</defs>
<g fill="none" stroke="black" stroke-width="1" fill-rule="evenodd" stroke-linecap="square" stroke-linejoin="bevel" >

<g fill="none" stroke="#000000" stroke-opacity="1" stroke-width="1" stroke-linecap="square" stroke-linejoin="bevel" transform="matrix(1,0,0,1,0,0)"
font-family="MS Shell Dlg 2" font-size="8.25" font-weight="400" font-style="normal" 
>
</g>

<g fill="#000000" fill-opacity="1" stroke="none" transform="matrix(1,0,0,1,0,0)"
font-family="MS Shell Dlg 2" font-size="8.25" font-weight="400" font-style="normal" 
>
<path vector-effect="none" fill-rule="nonzero" d="M109,215 C111,214 114,214 116,213 C117,213 118,213 119,213 C120,212 122,212 123,211 C124,211 124,211 125,211 C126,210 126,210 127,209 C128,209 128,209 129,208 C130,208 131,207 131,207 C132,206 132,206 133,206 C134,205 135,204 136,203 L139,199 L140,204 C140,205 141,207 142,209 C142,209 143,210 143,210 C143,210 143,211 144,211 C144,211 145,212 145,212 C145,212 145,213 146,213 C146,213 147,214 147,214 C147,214 148,214 148,214 C148,215 149,215 149,215 C150,215 150,216 150,216 C151,216 151,216 152,216 C152,217 153,217 154,217 C155,217 156,217 157,217 C157,217 158,217 158,217 C163,217 167,215 171,213 C181,209 191,205 200,199 C200,199 201,198 202,198 C203,198 203,197 204,197 C205,197 206,198 207,199 C208,200 208,201 208,202 C208,205 208,209 208,212 C208,219 208,225 210,230 C211,232 212,234 213,235 C213,235 213,236 213,236 C215,238 217,241 219,243 C221,245 223,247 225,250 C232,256 240,263 242,273 C243,276 243,279 242,282 C242,284 241,285 240,286 C239,289 238,291 238,292 C239,293 240,295 241,296 C243,298 245,300 244,303 C244,305 243,307 242,308 L241,308 C236,316 239,328 243,336 L245,338 C248,344 252,350 250,357 C250,358 250,359 250,360 C249,360 249,360 249,361 C249,361 249,361 249,362 C248,362 248,363 248,363 C247,364 247,364 246,365 L247,365 C246,366 246,368 246,369 C246,372 246,375 247,377 C247,377 247,378 247,378 C248,379 248,380 249,381 C249,381 249,382 249,382 C250,383 250,384 251,385 C253,387 255,389 257,391 C260,393 262,394 264,396 C266,397 267,398 268,398 C268,399 268,399 269,399 C269,400 270,400 270,400 C271,401 271,401 272,401 C272,402 273,402 274,403 C274,403 274,404 275,404 C275,405 276,405 277,406 C277,406 277,407 278,407 C279,408 279,409 280,410 C280,403 281,396 282,389 C282,387 283,386 283,384 C283,382 284,381 284,379 C284,379 284,379 284,378 C285,375 287,372 288,369 C288,368 289,367 289,366 C291,362 293,357 293,353 C293,352 293,352 293,351 C293,350 293,350 293,349 C293,349 293,349 293,348 C293,348 293,348 293,347 C293,347 293,347 293,346 C293,346 293,346 292,345 C292,344 292,344 292,343 C291,342 290,341 288,340 C287,339 286,339 285,338 C283,338 282,337 281,337 C278,335 275,332 276,328 C276,326 277,325 278,324 C279,323 282,322 284,322 C284,322 285,322 286,322 C287,322 287,322 288,322 C289,322 290,322 290,322 C291,322 291,322 291,322 C292,322 292,322 292,322 C297,321 302,317 306,313 C307,311 309,309 310,308 C311,307 311,306 312,306 C313,305 313,305 314,305 C314,304 315,304 315,304 C316,304 316,304 316,304 C319,304 321,306 322,308 C323,308 323,309 323,310 C324,311 324,312 325,314 C325,315 325,316 326,318 C326,318 327,319 328,320 C329,321 330,321 330,321 C330,321 331,322 331,322 C332,322 332,322 333,322 C334,322 335,323 336,323 C336,323 336,323 337,323 C339,323 342,322 344,322 C346,322 348,322 350,321 C351,321 352,321 353,321 C355,321 358,322 360,322 C363,322 366,323 369,324 C371,325 374,326 376,327 C378,329 380,330 382,331 C382,331 383,331 383,331 C383,331 384,331 384,331 C384,331 385,331 385,331 C386,331 387,331 387,330 C388,330 388,330 388,329 C391,325 389,319 386,311 C384,306 382,301 382,297 C382,291 383,285 384,280 C385,275 386,270 387,266 C387,262 386,258 386,254 C385,246 384,238 387,231 C390,222 398,215 405,210 C406,209 406,208 407,208 C409,206 412,204 415,203 C415,203 416,203 416,203 C417,203 418,203 419,202 C420,202 421,202 421,202 C424,202 426,203 428,203 C436,204 444,204 452,205 C454,205 457,205 459,205 C460,205 461,205 461,205 C462,205 463,205 464,205 C464,205 465,205 466,205 C467,205 467,205 468,205 C469,204 470,204 471,204 C471,204 471,204 472,204 C473,204 474,203 475,203 C480,202 484,200 489,197 C490,197 491,196 493,195 C496,193 500,191 504,189 C513,185 522,183 532,181 C539,179 546,177 552,175 C559,173 564,170 568,166 C568,165 569,165 569,164 C570,163 570,163 570,162 C570,162 570,162 571,162 C571,161 571,160 572,159 C572,158 573,156 574,155 C575,152 577,150 579,148 C589,139 601,127 615,123 C612,98 610,78 610,59 C610,57 610,55 610,53 C595,55 580,56 566,56 C538,56 510,52 486,48 C482,47 479,46 476,46 C467,44 458,42 450,41 C446,41 442,41 438,41 C429,40 419,40 409,36 C402,34 395,29 388,25 C381,20 374,16 366,14 C362,13 359,12 355,11 C351,11 347,10 343,8 C341,8 339,7 336,6 C332,4 328,2 323,2 C320,2 317,3 314,4 C311,4 309,5 306,5 C305,6 305,6 304,6 C300,6 296,4 293,2 C293,2 293,1 292,1 C284,9 273,13 261,13 C260,13 258,13 257,13 C255,13 253,12 250,12 C247,12 244,11 241,11 C237,11 234,12 231,13 C227,16 224,22 223,30 C223,33 223,36 222,38 C223,41 225,43 225,47 C226,51 225,56 222,59 C221,60 219,61 218,63 C214,66 212,67 212,70 C213,70 213,71 213,71 C213,72 213,73 213,74 C213,77 209,79 207,79 C206,79 205,79 205,79 C204,79 204,79 204,79 C203,79 202,79 201,80 C200,80 198,81 197,82 C196,83 196,84 195,84 C191,88 185,89 180,91 L178,91 C160,96 143,103 127,114 C128,116 129,118 129,120 C130,123 129,126 128,129 C127,132 126,135 125,139 C121,148 116,156 108,159 C107,159 107,159 106,159 L105,160 C104,160 104,160 103,160 C102,161 101,161 100,161 C100,161 100,161 100,162 C100,162 100,162 99,162 C99,163 98,163 98,163 C98,163 98,164 98,164 C98,164 98,164 98,165 C98,166 99,166 99,166 C99,166 99,166 99,167 C99,167 99,167 100,167 C101,169 102,170 102,173 C103,177 99,180 95,180 C94,180 93,181 92,181 C90,181 89,181 88,181 C87,181 87,182 87,182 C86,182 85,183 84,184 C84,185 83,185 83,186 C83,186 82,186 82,186 C82,187 82,188 82,189 C83,190 83,191 83,192 C83,192 83,192 83,193 C83,194 83,194 84,195 C84,195 84,195 84,196 C84,196 85,197 85,197 C85,197 85,198 86,198 C86,198 87,199 87,199 C88,199 88,199 89,199 C89,200 89,200 89,200 C89,200 90,200 90,200 C90,200 91,200 91,200 C91,200 91,200 92,200 C93,200 93,200 93,200 C94,200 95,200 96,200 C97,200 97,200 98,200 C100,200 102,200 104,201 C105,201 105,201 105,201 C106,201 106,201 106,202 C106,202 106,202 107,202 C107,202 107,203 108,203 C108,204 109,204 109,205 C109,205 109,206 110,206 C110,207 110,207 110,207 C110,208 110,208 110,208 C110,208 110,208 110,209 C110,210 110,210 110,210 C110,210 110,210 110,211 C110,211 110,211 110,212 C109,213 109,214 109,215 "/>
</g>

<g fill="none" stroke="#000000" stroke-opacity="1" stroke-width="1" stroke-linecap="square" stroke-linejoin="bevel" transform="matrix(1,0,0,1,0,0)"
font-family="MS Shell Dlg 2" font-size="8.25" font-weight="400" font-style="normal" 
>
</g>
</g>
</svg>
