<?xml version="1.0" encoding="UTF-8" standalone="no"?>
<svg width="248.356mm" height="198.967mm"
 viewBox="0 0 704 564"
 xmlns="http://www.w3.org/2000/svg" xmlns:xlink="http://www.w3.org/1999/xlink"  version="1.2" baseProfile="tiny">
<title>Qom</title>
<desc>Generated with Qt</desc>
<defs>
</defs>
<g fill="none" stroke="black" stroke-width="1" fill-rule="evenodd" stroke-linecap="square" stroke-linejoin="bevel" >

<g fill="none" stroke="#000000" stroke-opacity="1" stroke-width="1" stroke-linecap="square" stroke-linejoin="bevel" transform="matrix(1,0,0,1,0,0)"
font-family="MS Shell Dlg 2" font-size="8.25" font-weight="400" font-style="normal" 
>
</g>

<g fill="#000000" fill-opacity="1" stroke="none" transform="matrix(1,0,0,1,0,0)"
font-family="MS Shell Dlg 2" font-size="8.25" font-weight="400" font-style="normal" 
>
<path vector-effect="none" fill-rule="nonzero" d="M248,5 C247,45 242,84 233,123 C231,128 229,137 222,143 C215,150 205,150 197,150 C195,150 193,151 191,151 C175,152 161,164 146,177 L95,224 C92,227 89,230 88,233 C84,242 95,253 100,257 C108,264 116,270 124,277 C149,296 174,316 185,347 C186,349 187,352 188,355 C193,373 198,385 208,386 C208,386 209,386 209,386 C211,386 213,385 216,385 C218,384 221,384 224,383 C225,383 226,383 227,383 C245,383 259,398 270,410 C275,415 288,427 299,427 C301,427 303,427 305,426 C309,424 312,420 314,415 C314,414 315,413 315,412 C316,409 316,406 317,404 C317,403 317,403 317,402 C318,399 318,396 318,392 C322,357 334,332 354,319 C354,318 355,318 355,318 C358,316 361,315 364,313 C366,312 369,311 371,311 C372,310 373,310 374,310 C377,309 381,308 384,308 C385,308 385,307 385,307 C390,307 394,307 398,307 C411,307 424,309 437,310 C445,312 453,313 461,313 C465,314 469,314 473,314 C488,314 503,312 518,308 C518,307 519,307 519,307 C523,306 527,304 531,303 C532,302 534,302 535,301 C538,300 541,298 544,297 C546,296 548,295 550,294 C552,292 554,291 556,290 C559,288 561,287 563,285 C564,284 566,283 568,282 C570,280 572,278 574,276 C576,274 579,272 581,270 C580,268 580,267 580,265 L586,264 C587,263 587,263 588,262 C591,258 594,254 597,250 C597,249 598,249 598,248 C601,244 603,240 605,236 C605,235 606,234 606,234 C608,229 610,225 611,221 C612,220 612,219 612,218 C614,214 615,210 616,206 C616,205 616,203 617,201 C617,198 618,195 618,192 C618,189 619,187 619,184 C619,182 619,180 619,178 C619,174 619,171 619,167 C619,166 619,166 618,165 C618,160 617,156 617,151 C615,152 613,152 612,152 C608,152 604,150 602,149 C591,145 580,140 569,135 C568,135 568,135 568,134 C557,130 546,124 535,119 C535,119 534,119 534,119 C523,113 513,108 502,101 C491,95 481,88 471,81 C463,75 455,69 447,62 C437,54 426,45 415,38 C379,14 335,1 292,1 C279,1 266,2 254,4 C252,4 250,5 248,5 "/>
</g>

<g fill="none" stroke="#000000" stroke-opacity="1" stroke-width="1" stroke-linecap="square" stroke-linejoin="bevel" transform="matrix(1,0,0,1,0,0)"
font-family="MS Shell Dlg 2" font-size="8.25" font-weight="400" font-style="normal" 
>
</g>
</g>
</svg>
