<?xml version="1.0" encoding="UTF-8" standalone="no"?>
<svg width="249.061mm" height="220.133mm"
 viewBox="0 0 706 624"
 xmlns="http://www.w3.org/2000/svg" xmlns:xlink="http://www.w3.org/1999/xlink"  version="1.2" baseProfile="tiny">
<title>Kebab</title>
<desc>Generated with Qt</desc>
<defs>
</defs>
<g fill="none" stroke="black" stroke-width="1" fill-rule="evenodd" stroke-linecap="square" stroke-linejoin="bevel" >

<g fill="none" stroke="#000000" stroke-opacity="1" stroke-width="1" stroke-linecap="square" stroke-linejoin="bevel" transform="matrix(1,0,0,1,0,0)"
font-family="MS Shell Dlg 2" font-size="8.25" font-weight="400" font-style="normal" 
>
</g>

<g fill="#000000" fill-opacity="1" stroke="none" transform="matrix(1,0,0,1,0,0)"
font-family="MS Shell Dlg 2" font-size="8.25" font-weight="400" font-style="normal" 
>
<path vector-effect="none" fill-rule="nonzero" d="M438,103 C439,104 442,106 444,108 C445,109 446,111 447,112 C451,115 454,119 458,122 C462,125 466,127 471,130 C473,131 475,133 477,134 C478,134 478,135 478,135 C482,143 487,151 493,157 C495,160 497,162 499,164 C503,167 506,170 509,174 C509,175 508,176 508,177 C506,180 505,184 503,186 C497,192 491,197 485,203 C484,204 482,206 481,207 C479,208 477,209 476,211 C475,212 475,214 474,215 C468,221 462,227 456,234 C454,235 453,237 451,238 C449,238 447,240 446,242 C445,243 445,243 444,244 C438,251 432,257 426,264 C424,265 423,267 421,268 C419,269 417,270 416,272 C416,272 415,273 415,273 C409,280 402,287 396,293 C395,295 393,296 392,298 C392,298 391,298 391,298 C389,298 387,300 386,302 C385,304 384,305 383,306 C377,312 371,318 365,324 C363,325 361,327 358,329 C357,330 356,331 356,332 C355,334 354,335 353,337 C347,343 341,348 335,354 C334,355 332,356 331,358 C329,358 327,359 326,361 C325,363 324,365 323,366 C317,372 311,378 306,383 C304,385 302,386 301,388 C299,388 298,389 297,391 C296,393 295,394 294,395 C289,401 283,407 277,412 C275,414 274,415 272,416 C271,417 269,418 269,419 C268,421 267,422 266,423 C260,429 254,435 248,440 C247,442 245,443 243,445 C242,446 241,447 240,448 C239,450 238,451 237,452 C232,458 226,464 220,469 C219,470 218,470 218,471 C216,470 215,469 214,468 C208,462 201,456 195,449 C191,445 190,439 194,432 C194,432 194,431 194,431 C195,429 195,426 193,423 C192,421 189,419 186,419 C185,419 184,419 182,420 C179,421 177,422 174,422 C173,422 172,422 171,421 C169,421 165,420 163,418 C157,412 150,405 144,399 C143,398 142,397 141,396 C142,394 144,393 145,392 C152,386 158,380 165,374 C167,373 168,371 168,369 C170,367 172,365 174,363 C180,357 187,351 194,346 C196,344 197,342 197,340 C199,338 200,336 202,335 C209,329 215,322 222,317 C224,316 225,314 225,312 C225,312 225,312 225,311 C227,310 229,308 231,306 C238,300 245,293 252,287 C254,286 255,284 255,282 C255,282 255,282 255,281 C257,280 259,278 261,276 C268,270 275,263 283,257 C285,255 285,254 285,252 L287,250 C294,243 301,236 308,230 C308,229 309,229 310,228 C310,228 310,228 311,228 C311,228 312,227 312,227 C314,226 315,224 315,222 C315,222 315,221 315,221 C317,220 318,218 320,217 C327,210 334,204 341,197 C343,196 344,194 344,192 C346,190 348,189 349,187 C356,181 364,174 371,167 C373,166 374,164 375,162 C378,159 381,156 384,153 C389,147 395,141 402,137 C403,136 404,134 405,132 C405,132 405,131 405,131 C407,129 409,127 410,126 C418,119 425,112 432,107 C436,104 437,103 438,103 M438,96 C436,96 433,97 428,101 C417,109 408,119 397,128 C397,129 397,130 397,130 C398,131 398,131 398,131 C386,138 378,150 368,159 C367,159 367,160 368,161 C367,161 367,162 366,162 C356,171 347,180 337,189 C337,189 337,190 337,191 C337,191 337,192 336,192 C327,201 317,210 308,218 C307,219 307,220 308,221 C308,222 307,222 307,222 C306,223 304,224 303,225 C295,233 286,241 278,249 C277,250 277,251 278,251 C278,251 278,252 278,252 C267,260 258,270 248,279 C247,280 247,281 247,281 C248,281 248,282 248,282 C237,290 228,300 218,309 C217,309 217,310 218,311 C208,319 199,329 189,337 C189,338 189,339 189,340 C189,340 189,340 190,340 C179,348 170,357 161,366 C160,366 160,367 161,368 C161,368 161,368 161,369 C151,377 142,386 132,394 C131,395 131,396 132,397 C141,406 149,415 158,423 C161,426 165,427 169,428 C171,429 173,429 174,429 C178,429 182,428 185,426 C185,426 186,426 186,426 C187,426 188,427 187,428 C187,429 187,429 187,429 C183,438 183,447 190,454 C198,463 208,472 217,480 C217,480 217,480 218,480 C218,480 218,480 219,480 C226,473 235,465 242,457 C244,455 245,453 246,451 C247,451 247,451 247,451 C255,444 263,437 271,428 C272,427 274,425 275,423 C275,423 275,423 276,422 C283,415 292,408 299,400 C301,398 302,396 303,394 C304,394 304,394 304,394 C312,387 320,379 328,371 C330,369 331,367 332,364 C333,364 333,365 333,365 C333,365 334,364 334,364 C342,357 350,350 358,341 C359,340 361,338 362,335 C362,335 362,335 363,335 C371,327 380,319 388,311 C390,309 391,307 392,305 C393,305 393,306 393,306 C394,306 394,305 395,305 C403,296 412,287 420,278 C421,277 421,276 422,275 C422,276 423,276 423,276 C423,276 424,276 424,275 C433,267 441,258 450,248 C450,247 451,246 452,245 C452,245 453,246 453,246 C454,246 454,245 454,245 C463,236 471,228 479,219 C480,218 482,216 483,214 C483,214 484,214 484,213 C492,206 500,199 508,191 C512,186 514,180 516,175 C518,173 517,171 515,169 C509,164 504,158 498,153 C492,147 488,140 485,132 C484,130 482,129 481,128 C475,124 468,121 462,116 C457,112 453,107 448,103 C444,98 441,96 438,96 "/>
</g>

<g fill="#000000" fill-opacity="1" stroke="none" transform="matrix(1,0,0,1,0,0)"
font-family="MS Shell Dlg 2" font-size="8.25" font-weight="400" font-style="normal" 
>
<path vector-effect="none" fill-rule="nonzero" d="M148,434 C155,439 161,443 168,446 C171,452 174,459 179,465 L104,541 L72,509 L148,434 M148,424 C148,424 147,425 147,425 L66,505 C64,507 64,511 66,513 L100,547 C101,548 102,548 104,548 C105,548 107,548 108,547 L188,466 C189,465 189,464 188,464 C182,457 177,450 174,441 C174,441 173,440 172,440 C164,437 157,432 150,425 C150,425 149,425 149,425 C149,424 148,424 148,424 "/>
</g>

<g fill="#000000" fill-opacity="1" stroke="none" transform="matrix(1,0,0,1,0,0)"
font-family="MS Shell Dlg 2" font-size="8.25" font-weight="400" font-style="normal" 
>
<path vector-effect="none" fill-rule="nonzero" d="M604,9 L603,17 C600,36 591,53 577,67 L510,134 C509,129 508,124 508,119 L508,114 C508,112 507,109 506,108 C504,106 501,105 499,105 L494,105 L493,105 C488,105 484,104 479,103 L546,36 C560,22 577,13 596,10 L604,9 M608,1 L594,3 C574,7 556,16 541,31 L468,103 C468,104 468,105 468,106 L469,106 C476,110 485,112 493,112 C493,112 494,112 494,112 L499,112 C500,112 501,113 501,114 L501,119 C501,128 503,137 507,145 C508,145 508,145 508,145 C509,145 509,145 510,145 L582,72 C597,57 606,39 610,19 L612,5 C612,3 610,1 608,1 "/>
</g>

<g fill="#000000" fill-opacity="1" stroke="none" transform="matrix(1,0,0,1,0,0)"
font-family="MS Shell Dlg 2" font-size="8.25" font-weight="400" font-style="normal" 
>
<path vector-effect="none" fill-rule="nonzero" d="M404,160 C409,163 419,171 432,183 C444,196 451,205 454,211 C449,208 439,201 426,188 C414,176 407,166 404,160 M400,154 C399,154 399,154 398,155 C395,158 406,175 423,192 C438,207 453,217 458,217 C459,217 459,217 460,216 C463,213 452,197 435,180 C420,165 405,154 400,154 "/>
</g>

<g fill="#000000" fill-opacity="1" stroke="none" transform="matrix(1,0,0,1,0,0)"
font-family="MS Shell Dlg 2" font-size="8.25" font-weight="400" font-style="normal" 
>
<path vector-effect="none" fill-rule="nonzero" d="M434,130 C440,133 450,140 462,153 C475,165 482,175 485,180 C479,178 469,170 457,158 C444,145 437,135 434,130 M430,124 C430,124 429,124 429,124 C425,128 437,144 454,161 C469,176 483,187 489,187 C489,187 490,186 490,186 C493,183 482,166 465,149 C450,134 436,124 430,124 "/>
</g>

<g fill="#000000" fill-opacity="1" stroke="none" transform="matrix(1,0,0,1,0,0)"
font-family="MS Shell Dlg 2" font-size="8.25" font-weight="400" font-style="normal" 
>
<path vector-effect="none" fill-rule="nonzero" d="M372,193 C377,195 387,203 400,215 C412,228 419,238 422,243 C417,240 407,233 394,220 C382,208 375,198 372,193 M368,186 C367,186 367,187 366,187 C363,190 374,207 391,224 C406,239 421,249 426,249 C427,249 427,249 428,249 C431,245 420,229 403,212 C388,197 373,186 368,186 "/>
</g>

<g fill="#000000" fill-opacity="1" stroke="none" transform="matrix(1,0,0,1,0,0)"
font-family="MS Shell Dlg 2" font-size="8.25" font-weight="400" font-style="normal" 
>
<path vector-effect="none" fill-rule="nonzero" d="M340,225 C345,228 355,235 368,247 C380,260 387,270 390,275 C385,272 375,265 362,252 C350,240 343,230 340,225 M336,218 C335,218 334,219 334,219 C331,222 342,239 359,256 C374,271 389,281 394,281 C395,281 395,281 396,281 C399,277 388,261 371,244 C356,229 341,218 336,218 "/>
</g>

<g fill="#000000" fill-opacity="1" stroke="none" transform="matrix(1,0,0,1,0,0)"
font-family="MS Shell Dlg 2" font-size="8.25" font-weight="400" font-style="normal" 
>
<path vector-effect="none" fill-rule="nonzero" d="M308,257 C313,260 323,267 335,279 C348,292 355,302 358,307 C353,304 343,297 330,284 C318,272 311,262 308,257 M304,250 C303,250 302,251 302,251 C299,254 310,271 327,288 C342,303 357,313 362,313 C363,313 363,313 364,313 C367,309 356,293 339,276 C324,261 309,250 304,250 "/>
</g>

<g fill="#000000" fill-opacity="1" stroke="none" transform="matrix(1,0,0,1,0,0)"
font-family="MS Shell Dlg 2" font-size="8.25" font-weight="400" font-style="normal" 
>
<path vector-effect="none" fill-rule="nonzero" d="M276,289 C281,292 291,299 303,311 C316,324 323,334 326,339 C321,336 311,329 298,317 C286,304 278,294 276,289 M272,283 C271,283 270,283 270,283 C267,286 278,303 295,320 C310,335 324,345 330,345 C331,345 331,345 332,345 C335,341 324,325 307,308 C292,293 277,283 272,283 "/>
</g>

<g fill="#000000" fill-opacity="1" stroke="none" transform="matrix(1,0,0,1,0,0)"
font-family="MS Shell Dlg 2" font-size="8.25" font-weight="400" font-style="normal" 
>
<path vector-effect="none" fill-rule="nonzero" d="M244,321 C249,324 259,331 271,343 C284,356 291,366 294,371 C288,368 279,361 266,349 C254,336 246,326 244,321 M240,315 C239,315 238,315 238,315 C235,318 246,335 263,352 C278,367 292,377 298,377 C299,377 299,377 299,377 C303,374 292,357 275,340 C260,325 245,315 240,315 "/>
</g>

<g fill="#000000" fill-opacity="1" stroke="none" transform="matrix(1,0,0,1,0,0)"
font-family="MS Shell Dlg 2" font-size="8.25" font-weight="400" font-style="normal" 
>
<path vector-effect="none" fill-rule="nonzero" d="M211,353 C217,356 227,363 239,375 C252,388 259,398 262,403 C256,400 247,393 234,381 C222,368 214,358 211,353 M208,347 C207,347 206,347 206,347 C203,350 214,367 231,384 C246,399 260,409 266,409 C266,409 267,409 267,409 C271,406 260,389 243,372 C228,357 213,347 208,347 "/>
</g>

<g fill="#000000" fill-opacity="1" stroke="none" transform="matrix(1,0,0,1,0,0)"
font-family="MS Shell Dlg 2" font-size="8.25" font-weight="400" font-style="normal" 
>
<path vector-effect="none" fill-rule="nonzero" d="M179,385 C185,388 195,395 207,407 C220,420 227,430 230,435 C224,432 214,425 202,413 C189,400 182,390 179,385 M175,379 C175,379 174,379 174,379 C171,383 182,399 199,416 C214,431 228,441 234,441 C234,441 235,441 235,441 C239,438 227,421 210,404 C195,389 181,379 175,379 "/>
</g>

<g fill="none" stroke="#000000" stroke-opacity="1" stroke-width="1" stroke-linecap="square" stroke-linejoin="bevel" transform="matrix(1,0,0,1,0,0)"
font-family="MS Shell Dlg 2" font-size="8.25" font-weight="400" font-style="normal" 
>
</g>
</g>
</svg>
